<?xml version="1.0" encoding="utf-8"?>
<!-- Generator: Adobe Illustrator 24.0.1, SVG Export Plug-In . SVG Version: 6.00 Build 0)  -->
<svg version="1.1" id="Layer_1" xmlns="http://www.w3.org/2000/svg" xmlns:xlink="http://www.w3.org/1999/xlink" x="0px" y="0px"
	 viewBox="0 0 162.86 180.72" style="enable-background:new 0 0 162.86 180.72;" xml:space="preserve">
<style type="text/css">
	.st0{fill:#14CC80;}
	.st1{fill:#169E5D;}
	.st2{display:none;fill:#2C8954;stroke:#2C8954;stroke-width:0.25;stroke-miterlimit:10;}
</style>
<g>
	<path class="st0" d="M162.86,135.69c-27.27,15.06-54.25,29.97-81.51,45.02c-16.9-9.33-33.65-18.57-50.37-27.8V62.7
		c16.6-9.26,33.3-18.58,50.34-28.1c16.85,9.39,33.56,18.71,50.39,28.09v55.62c-16.75,9.26-33.5,18.52-50.39,27.85
		c-6.54-3.64-12.89-7.17-19.26-10.72v-55.3c6.27-3.49,12.62-7.03,19.22-10.71c4.96,2.72,9.86,5.4,15.61,8.55
		c-6.9,3.96-13,7.47-19.26,11.07c0,12.35-0.11,24.77-0.11,37.08c0,0.05,0.04,0.08,0.08,0.1c3.68,1.86,3.68,1.86,5.31,1.17
		c11.42-4.83,22.18-11.86,32.99-17.82V71.21C104.56,64.95,93.1,58.6,81.35,52.1c-11.59,6.39-23.07,12.73-34.74,19.17V144
		c11.26,6.34,22.69,12.77,34.66,19.51c21.71-12.07,43.53-24.2,65.55-36.44V53.71c-21.64-11.96-43.48-24.04-65.48-36.21
		C59.16,29.76,37.29,41.84,15.31,53.99v90.2C9.77,141.16,4.9,138.49,0,135.8V45.23L81.34,0c27.3,15.18,54.4,30.26,81.51,45.34
		V135.69z"/>
</g>
<g>
	<polygon class="st1" points="0,45.23 0,135.8 15.31,144.19 15.31,53.99 	"/>
	<polyline class="st1" points="30.98,152.92 46.61,144 46.61,71.27 30.98,62.7 	"/>
	<polyline class="st1" points="115.88,109.58 131.71,118.32 81.31,146.17 81.27,128.08 	"/>
	<polyline class="st1" points="96.88,77.99 81.27,69.44 62.05,80.14 77.62,89.05 	"/>
	<polyline class="st1" points="81.34,0 81.33,17.5 146.82,53.71 162.86,45.34 	"/>
	<polyline class="st1" points="162.86,135.69 146.82,127.07 81.27,163.51 81.35,180.72 	"/>
	<polyline class="st1" points="81.32,34.6 81.35,52.1 115.88,71.21 131.71,62.69 	"/>
</g>
<path class="st2" d="M81.27,69.44"/>
</svg>
