<?xml version="1.0" encoding="UTF-8"?>
<!DOCTYPE svg PUBLIC "-//W3C//DTD SVG 1.1//EN" "http://www.w3.org/Graphics/SVG/1.1/DTD/svg11.dtd">
<!-- Creator: CorelDRAW X8 -->
<svg xmlns="http://www.w3.org/2000/svg" xml:space="preserve" width="100%" height="100%" version="1.1" style="shape-rendering:geometricPrecision; text-rendering:geometricPrecision; image-rendering:optimizeQuality; fill-rule:evenodd; clip-rule:evenodd"
viewBox="0 0 2455 2540"
 xmlns:xlink="http://www.w3.org/1999/xlink">
 <defs>
  <style type="text/css">
   <![CDATA[
    .fil1 {fill:#091570}
    .fil5 {fill:#D42D57}
    .fil3 {fill:#E6E6E6}
    .fil0 {fill:#F54773}
    .fil2 {fill:white}
    .fil4 {fill:#091570;fill-rule:nonzero}
    .fil7 {fill:#091570;fill-rule:nonzero}
    .fil6 {fill:#F54773;fill-rule:nonzero}
   ]]>
  </style>
 </defs>
 <g id="Capa_x0020_1">
  <metadata id="CorelCorpID_0Corel-Layer"/>
  <g id="_1406912522704">
   <path class="fil0" d="M957 1790c-1,0 8,1 25,1l14 535c2,85 72,151 156,149 85,-2 151,-72 149,-156l-14 -538 0 0 -1 -37c157,-52 330,-158 422,-378 69,-162 113,-338 113,-515 0,-115 -27,-226 -79,-328 -149,-293 -468,-458 -791,-458 -323,0 -642,165 -791,458 -51,102 -78,213 -78,328 0,177 44,353 112,515 110,260 -9,516 24,824 9,84 85,145 169,136 84,-9 144,-85 135,-169 -8,-83 -1,-267 14,-445 27,12 54,23 81,31l-1 38 0 0 -15 538c-2,84 65,154 149,156 84,2 154,-64 157,-149l14 -535c23,0 36,-1 36,-1z"/>
   <path class="fil1" d="M957 1790l0 0 0 0zm0 0c0,0 9,1 25,1l14 535c2,85 72,151 156,149 85,-2 151,-72 149,-156l-15 -575c157,-52 330,-158 422,-378 69,-162 113,-338 113,-515 0,-115 -27,-226 -79,-328 -149,-293 -468,-458 -791,-458 -323,0 -642,165 -791,458 -51,102 -78,213 -78,328 0,177 44,353 112,515 110,260 -9,516 24,824 9,84 85,145 169,136 84,-9 144,-85 135,-169 -8,-83 -1,-267 14,-445 27,12 54,23 81,31l-16 576c-2,84 65,154 149,156 84,2 154,-64 157,-149l14 -535c22,0 34,-1 36,-1zm52 679c-28,-26 -49,-61 -58,-100 -9,39 -29,74 -57,100 -37,35 -86,56 -140,56l-4 0 0 0 -1 0c-56,-2 -106,-25 -142,-63 -35,-37 -56,-86 -56,-140l0 -3 1 0 1 -57c-7,14 -15,27 -25,39 -32,40 -80,68 -136,74 -56,6 -109,-11 -149,-43 -40,-33 -69,-81 -74,-137 -14,-130 -2,-249 9,-364 16,-156 30,-303 -30,-445 -37,-88 -67,-179 -87,-272 -19,-86 -29,-175 -29,-263 0,-61 7,-121 21,-180 14,-59 35,-116 63,-170 77,-152 197,-272 339,-354 149,-86 322,-132 496,-132 174,0 347,46 496,132 142,82 262,202 340,354 27,54 48,111 62,170 15,59 22,119 22,180 0,88 -11,176 -30,263 -20,93 -50,184 -87,272 -45,105 -107,187 -177,250 -75,67 -159,112 -240,143l14 534c0,2 0,4 0,6l0 0c1,55 -20,106 -56,143 -34,36 -82,60 -136,63 -2,0 -4,0 -7,0l0 0c-55,1 -106,-20 -143,-56z"/>
   <path class="fil2" d="M951 1270c259,0 471,-211 471,-471 0,-259 -212,-470 -471,-470 -259,0 -470,211 -470,470 0,260 211,471 470,471z"/>
   <path class="fil1" d="M951 982c101,0 183,-82 183,-183 0,-100 -82,-182 -183,-182 -100,0 -182,82 -182,182 0,101 82,183 182,183zm-37 -131c48,0 87,-39 87,-87 0,-48 -39,-87 -87,-87 -48,0 -87,39 -87,87 0,48 39,87 87,87z"/>
   <path class="fil3" d="M1218 412c-76,-52 -168,-83 -267,-83 -259,0 -470,211 -470,470 0,214 143,395 339,452 -123,-85 -204,-227 -204,-387 0,-259 212,-470 471,-470 45,0 89,6 131,18z"/>
   <path class="fil4" d="M951 1245c123,0 234,-50 315,-131 81,-81 131,-192 131,-315 0,-122 -50,-234 -131,-314 -81,-81 -192,-131 -315,-131 -122,0 -234,50 -315,131 -80,80 -130,192 -130,314 0,123 50,234 130,315 81,81 193,131 315,131zm350 -95c-89,89 -213,145 -350,145 -136,0 -260,-56 -350,-145 -90,-90 -145,-214 -145,-351 0,-136 55,-260 145,-350 90,-90 214,-145 350,-145 137,0 261,55 350,145 90,90 146,214 146,350 0,137 -56,261 -146,351z"/>
   <path class="fil5" d="M1393 174c-134,-71 -288,-109 -442,-109 -323,0 -642,165 -791,458 -51,102 -78,213 -78,328 0,177 44,353 112,515 110,260 -9,516 24,824 9,84 85,145 169,136l1 0c-16,-22 -27,-48 -30,-76 -33,-308 86,-564 -24,-824 -68,-162 -112,-338 -112,-515 0,-115 27,-226 78,-328 149,-293 468,-458 791,-458 103,0 205,17 302,49z"/>
   <path class="fil6" d="M1521 1848c-48,13 -97,5 -137,-18 -40,-23 -71,-61 -83,-109 -13,-48 -5,-96 18,-136 23,-40 61,-71 109,-84 46,-12 75,-50 97,-99 23,-53 37,-120 51,-185 23,-109 44,-214 94,-300 51,-88 129,-153 263,-177 49,-9 97,4 135,30 37,26 65,67 74,116 8,49 -4,97 -30,135 -27,37 -68,65 -117,73 -11,2 -22,23 -33,54 -13,38 -24,89 -35,142 -23,113 -47,230 -104,330 -58,103 -148,187 -302,228z"/>
   <path class="fil7" d="M1600 1222c-3,14 -16,22 -29,19 -14,-2 -22,-16 -20,-29 12,-55 23,-109 38,-160 15,-53 33,-102 59,-147 27,-47 62,-88 108,-121 46,-32 102,-56 173,-69 27,-4 54,-3 80,2 27,6 51,17 73,33 22,15 41,35 55,57 14,23 24,48 29,75 5,27 4,54 -2,80 -6,26 -17,51 -32,73 -15,22 -35,41 -58,55 -21,13 -45,23 -70,28 -9,12 -14,25 -18,38 -6,18 -12,40 -18,63 -6,25 -11,51 -16,76 -12,57 -24,114 -40,172 -17,57 -38,113 -67,166 -31,54 -70,103 -122,144 -51,41 -115,74 -196,95 -27,8 -54,9 -79,6 -27,-4 -53,-13 -76,-26 -50,-29 -75,-67 -87,-107 -11,-39 -9,-79 -3,-114 9,-53 34,-68 70,-89l14 -8c12,-8 27,-4 34,8 8,11 4,27 -8,34l-15 9c-24,14 -40,24 -46,54 -5,30 -7,62 2,92 8,29 27,56 64,78 17,10 37,17 57,19 19,3 40,2 60,-4 74,-20 132,-49 178,-86 47,-37 82,-81 109,-130 27,-48 47,-101 63,-155 15,-55 27,-112 39,-168 6,-27 11,-54 17,-77 6,-25 12,-48 19,-68 6,-17 12,-32 18,-42 9,-16 20,-26 34,-28 21,-4 40,-11 56,-22 18,-11 33,-25 44,-42 12,-16 20,-35 25,-55 4,-19 5,-40 1,-60 -4,-21 -11,-40 -22,-57 -11,-17 -25,-32 -42,-44 -16,-11 -35,-20 -55,-24 -19,-4 -39,-5 -60,-1 -64,11 -113,32 -153,60 -40,28 -70,64 -94,105 -23,40 -40,86 -54,135 -15,51 -26,103 -37,157z"/>
   <path class="fil4" d="M802 1343c96,13 195,14 298,0 15,0 28,13 28,28 0,48 -20,92 -52,124l0 0c-32,32 -76,52 -125,52 -48,0 -92,-20 -124,-52l0 0c-32,-32 -52,-76 -52,-124 0,-15 12,-28 27,-28z"/>
   <path class="fil5" d="M951 1492c20,0 38,-4 54,-13 -12,-31 -29,-55 -54,-72l-118 -9c5,23 16,43 32,59 22,22 53,35 86,35z"/>
   <path class="fil4" d="M1632 662c10,-9 26,-8 35,3 9,10 8,26 -2,35 -16,14 -29,29 -40,44 -11,16 -19,32 -25,48 -5,17 -8,35 -9,53 0,19 1,39 6,60 3,13 -6,26 -19,29 -14,3 -27,-5 -30,-19 -5,-25 -7,-49 -7,-72 1,-23 5,-45 12,-66l0 -1c7,-21 17,-41 31,-60 13,-19 29,-37 48,-54zm582 451c-11,9 -26,8 -35,-2 -10,-11 -8,-26 2,-35 16,-14 29,-29 40,-45 11,-15 19,-31 24,-48 6,-16 9,-34 10,-52 0,-19 -2,-39 -6,-60 -3,-14 6,-27 19,-30 13,-3 27,6 30,19 5,25 7,49 6,72 0,24 -4,46 -11,67l0 0c-7,21 -18,42 -31,61 -13,18 -29,36 -48,53zm-644 -565c10,-9 26,-8 35,3 9,10 8,26 -2,35 -28,25 -52,51 -71,78 -19,28 -34,56 -44,86 -9,30 -15,61 -16,94 -1,34 2,69 10,106 3,13 -6,27 -19,29 -14,3 -27,-5 -30,-19 -8,-41 -12,-80 -11,-117 1,-38 8,-74 19,-109l0 0c12,-34 28,-67 50,-98 21,-31 47,-60 79,-88zm706 679c-10,9 -26,8 -35,-2 -9,-10 -8,-26 2,-35 28,-25 52,-51 71,-79 19,-27 33,-55 43,-85 10,-30 16,-62 17,-95 1,-33 -3,-68 -10,-105 -3,-14 5,-27 19,-30 13,-3 27,6 29,19 9,41 13,80 12,118 -2,38 -8,74 -19,108l0 0c-12,35 -28,67 -50,99 -21,30 -48,60 -79,87z"/>
  </g>
  <path class="fil7" d="M1980 1067c12,6 17,21 11,34 -6,12 -21,17 -33,11l-7 -4c-8,-17 -19,-32 -33,-45 7,-12 21,-16 33,-10l29 14z"/>
 </g>
</svg>
