<?xml version="1.0" encoding="UTF-8"?>
<!DOCTYPE svg PUBLIC "-//W3C//DTD SVG 1.1//EN" "http://www.w3.org/Graphics/SVG/1.1/DTD/svg11.dtd">
<!-- Creator: CorelDRAW X8 -->
<svg xmlns="http://www.w3.org/2000/svg" xml:space="preserve" width="100%" height="100%" version="1.1" style="shape-rendering:geometricPrecision; text-rendering:geometricPrecision; image-rendering:optimizeQuality; fill-rule:evenodd; clip-rule:evenodd"
viewBox="0 0 2371 2540"
 xmlns:xlink="http://www.w3.org/1999/xlink">
 <defs>
  <style type="text/css">
   <![CDATA[
    .fil1 {fill:#091570}
    .fil6 {fill:#11111F}
    .fil7 {fill:#B4B4B4}
    .fil9 {fill:#D42D57}
    .fil4 {fill:#E6E6E6}
    .fil0 {fill:#F54773}
    .fil3 {fill:white}
    .fil5 {fill:#091570;fill-rule:nonzero}
    .fil2 {fill:#F54773;fill-rule:nonzero}
    .fil8 {fill:white;fill-rule:nonzero}
   ]]>
  </style>
 </defs>
 <g id="Capa_x0020_1">
  <metadata id="CorelCorpID_0Corel-Layer"/>
  <g id="_1528521414560">
   <path class="fil0" d="M1179 1767c12,160 17,315 9,390 -9,84 52,160 136,169 84,9 160,-52 169,-136 13,-124 3,-346 -18,-553 84,-62 160,-149 212,-271 68,-162 112,-338 112,-515 0,-115 -27,-226 -78,-328 -149,-293 -468,-458 -791,-458 -323,0 -642,165 -791,458 -52,102 -79,213 -79,328 0,177 44,353 113,515 109,260 -9,516 24,824 9,84 84,145 168,136 84,-9 145,-85 136,-169 -9,-83 -2,-267 14,-445 27,12 54,23 80,31l-1 38 0 0 -14 538c-2,84 64,154 149,156 84,2 154,-64 156,-149l14 -535c98,6 182,0 280,-24z"/>
   <path class="fil1" d="M1179 1767c12,160 17,315 9,390 -9,84 52,160 136,169 84,9 160,-52 169,-136 13,-124 3,-346 -18,-553 84,-62 160,-149 212,-271 68,-162 112,-338 112,-515 0,-115 -27,-226 -78,-328 -149,-293 -468,-458 -791,-458 -323,0 -642,165 -791,458 -52,102 -79,213 -79,328 0,177 44,353 113,515 109,260 -9,516 24,824 9,84 84,145 168,136 84,-9 145,-85 136,-169 -9,-83 -2,-267 14,-445 27,12 54,23 80,31l-15 576c-2,84 64,154 149,156 84,2 154,-64 156,-149l14 -535c98,6 182,0 280,-24zm-37 235c-1,-52 -4,-111 -9,-174 -30,6 -60,10 -90,12 -31,3 -63,4 -95,3l-13 485c-1,56 -25,106 -63,141 -36,35 -86,56 -140,56l-3 0 0 0 -2 0c-56,-2 -106,-25 -141,-63 -35,-37 -56,-86 -56,-140l0 -3 0 0 2 -57c-7,14 -15,27 -25,39 -33,40 -81,68 -137,74 -55,6 -108,-11 -148,-43 -41,-33 -69,-81 -75,-137 -14,-130 -2,-249 10,-364 15,-156 30,-303 -30,-445 -37,-88 -67,-179 -87,-272 -19,-86 -30,-175 -30,-263 0,-61 7,-121 22,-180 14,-59 35,-116 62,-170 78,-152 198,-272 340,-354 149,-86 322,-132 496,-132 174,0 347,46 496,132 142,82 262,202 339,354 28,54 49,111 63,170 14,59 21,119 21,180 0,88 -10,176 -29,263 -20,93 -51,184 -87,272 -28,65 -62,121 -101,169 -32,40 -68,75 -105,105 10,100 17,203 20,296 3,94 2,178 -5,239 -6,56 -34,104 -74,137 -40,32 -93,49 -149,43 -56,-6 -104,-34 -136,-74 -33,-41 -50,-93 -44,-149 4,-34 4,-87 3,-150z"/>
   <path class="fil2" d="M951 1827c-13,-83 44,-160 127,-173 86,-14 175,-32 266,-55 88,-22 178,-48 268,-77 80,-26 166,18 193,98 82,253 -809,484 -854,207z"/>
   <path class="fil1" d="M1324 1603l0 0zm-425 188l50 2c-23,320 938,81 856,-173 -27,-80 -113,-124 -193,-98 -93,30 -187,58 -282,81l-6 0c-11,0 -21,-3 -30,-10l6 -32 24 -8c92,-23 182,-49 273,-79 106,-34 220,24 255,130 107,329 -980,591 -953,187z"/>
   <g>
    <path class="fil3" d="M930 1270c259,0 470,-211 470,-471 0,-259 -211,-470 -470,-470 -259,0 -471,211 -471,470 0,260 212,471 471,471z"/>
    <path class="fil1" d="M1051 1104c101,0 183,-82 183,-183 0,-100 -82,-182 -183,-182 -100,0 -182,82 -182,182 0,101 82,183 182,183zm-36 -131c48,0 87,-39 87,-87 0,-48 -39,-88 -87,-88 -49,0 -88,40 -88,88 0,48 39,87 88,87z"/>
    <path class="fil4" d="M1197 412c-76,-52 -168,-83 -267,-83 -259,0 -471,211 -471,470 0,214 144,395 340,452 -123,-85 -204,-227 -204,-387 0,-259 212,-470 471,-470 45,0 89,6 131,18z"/>
    <path class="fil5" d="M930 1245c122,0 234,-50 315,-131 80,-81 130,-192 130,-315 0,-122 -50,-234 -130,-314 -81,-81 -193,-131 -315,-131 -123,0 -234,50 -315,131 -81,80 -131,192 -131,314 0,123 50,234 131,315 81,81 192,131 315,131zm350 -95c-90,89 -214,145 -350,145 -137,0 -261,-56 -350,-145 -90,-90 -146,-214 -146,-351 0,-136 56,-260 146,-350 89,-90 213,-145 350,-145 136,0 260,55 350,145 90,90 145,214 145,350 0,137 -55,261 -145,351z"/>
   </g>
   <g>
    <rect class="fil6" transform="matrix(-0.418322 -0.380692 -0.380692 0.418322 1564.54 1366.23)" width="116" height="275" rx="58" ry="58"/>
    <path class="fil1" d="M1157 1479l471 -56c3,0 5,0 7,0l676 5c26,0 47,20 49,46 3,25 -15,48 -40,53l-559 108c-1,0 -2,1 -4,1l-242 24c-5,1 -9,0 -13,0l-354 -54c-15,-2 -27,-9 -35,-22 -8,-12 -10,-26 -6,-40l7 -28c6,-20 22,-34 43,-37z"/>
    <polygon class="fil7" points="1163,1529 1634,1473 2311,1478 1752,1586 1510,1610 1155,1557 "/>
    <path class="fil1" d="M1504 984l737 -55c65,-5 120,47 120,112l0 437c0,63 -50,117 -113,122l-737 54c-65,5 -120,-46 -120,-112l0 -437c0,-63 50,-117 113,-121z"/>
    <rect class="fil4" transform="matrix(0.345932 -0.0254711 -0 0.345932 1441.02 1038.29)" width="2514" height="1649" rx="193" ry="193"/>
    <polygon class="fil8" points="1730,1600 1729,1602 "/>
    <polygon class="fil8" points="1669,1551 1668,1553 "/>
    <path class="fil3" d="M1887 1359c-1,0 1,0 3,0l2 69c0,11 9,20 20,19 11,0 19,-9 19,-20l-2 -69 0 0 0 -5c3,-1 7,-3 10,-4 2,23 3,46 2,57 -1,11 7,21 18,22 11,1 20,-7 22,-18 4,-39 -12,-72 3,-106 8,-21 14,-44 14,-67 0,-14 -3,-29 -10,-42 -19,-38 -60,-59 -102,-59 -42,0 -83,21 -102,59 -7,13 -11,28 -11,42 0,23 6,46 15,67 14,34 -1,67 3,106 1,11 11,19 22,18 11,-1 19,-11 17,-22 -1,-11 0,-34 2,-57 4,1 7,3 11,4l-1 5 0 0 -1 69c-1,11 8,20 19,20 11,1 20,-8 20,-19l2 -69c3,0 5,0 5,0zm-1 -105c13,0 23,-10 23,-23 0,-13 -10,-24 -23,-24 -13,0 -24,11 -24,24 0,13 11,23 24,23zm-5 -17c6,0 11,-5 11,-11 0,-6 -5,-11 -11,-11 -6,0 -11,5 -11,11 0,6 5,11 11,11zm5 55c33,0 61,-28 61,-61 0,-34 -28,-61 -61,-61 -34,0 -61,27 -61,61 0,33 27,61 61,61z"/>
   </g>
   <path class="fil0" d="M911 241c-156,0 -297,65 -398,168 90,13 210,50 314,50 148,0 278,-26 382,-70 22,-4 43,-9 62,-15 -97,-82 -223,-133 -360,-133z"/>
   <path class="fil5" d="M1261 325c9,-10 25,-10 35,0 9,10 9,26 0,35 -78,78 -225,119 -376,125 -154,6 -314,-25 -411,-94 -11,-7 -14,-23 -6,-34 8,-12 24,-14 35,-6 88,61 236,90 380,84 140,-5 274,-42 343,-110z"/>
   <path class="fil5" d="M700 1413c-10,-10 -10,-26 0,-35 9,-10 25,-10 35,0 29,29 64,52 102,68 37,15 78,24 121,24 13,0 25,11 25,25 0,14 -12,25 -25,25 -50,0 -97,-10 -140,-28 -45,-18 -85,-45 -118,-79z"/>
   <path class="fil9" d="M1372 174c-135,-71 -288,-109 -442,-109 -323,0 -642,165 -791,458 -52,102 -79,213 -79,328 0,177 44,353 113,515 109,260 -9,516 24,824 9,84 84,145 168,136l2 0c-16,-22 -27,-48 -30,-76 -33,-308 85,-564 -24,-824 -69,-162 -113,-338 -113,-515 0,-115 27,-226 79,-328 149,-293 468,-458 791,-458 103,0 205,17 302,49z"/>
  </g>
 </g>
</svg>
