<?xml version="1.0" encoding="UTF-8"?>
<!DOCTYPE svg PUBLIC "-//W3C//DTD SVG 1.1//EN" "http://www.w3.org/Graphics/SVG/1.1/DTD/svg11.dtd">
<!-- Creator: CorelDRAW X8 -->
<svg xmlns="http://www.w3.org/2000/svg" xml:space="preserve" width="100%" height="100%" version="1.1" style="shape-rendering:geometricPrecision; text-rendering:geometricPrecision; image-rendering:optimizeQuality; fill-rule:evenodd; clip-rule:evenodd"
viewBox="0 0 3006 2540"
 xmlns:xlink="http://www.w3.org/1999/xlink">
 <defs>
  <style type="text/css">
   <![CDATA[
    .fil2 {fill:#091570}
    .fil4 {fill:#B4B4B4}
    .fil3 {fill:#D42D57}
    .fil6 {fill:#E6E6E6}
    .fil5 {fill:white}
    .fil0 {fill:#091570;fill-rule:nonzero}
    .fil1 {fill:#F54773;fill-rule:nonzero}
   ]]>
  </style>
 </defs>
 <g id="Capa_x0020_1">
  <metadata id="CorelCorpID_0Corel-Layer"/>
  <g id="_1528594711488">
   <path class="fil0" d="M1698 1509c-1,-3 -1,-5 -2,-6 -23,-49 -26,-102 -11,-149 2,-6 4,-11 6,-16 18,-43 50,-80 94,-103 50,-26 105,-29 154,-14 50,15 93,50 120,100 13,26 23,56 31,86 8,33 14,71 18,97 5,38 9,90 1,142 -13,79 -50,152 -137,192 -29,13 -59,26 -90,37 -28,10 -57,19 -85,28 -46,15 -80,25 -104,32 -27,8 -63,17 -104,28 -59,16 -120,31 -181,45 -62,14 -125,27 -187,38 -55,9 -108,-5 -151,-35 -42,-30 -73,-76 -82,-132 -10,-55 4,-108 35,-151 30,-42 76,-73 131,-82 54,-10 110,-21 165,-34 56,-13 112,-27 167,-42 26,-6 57,-15 95,-26 31,-8 62,-18 94,-28 4,-1 8,-2 12,-3l11 -4z"/>
   <path class="fil1" d="M1822 1516c76,-36 167,-3 203,74 36,76 3,167 -74,203 -73,34 -193,72 -320,107 -157,43 -324,81 -418,97 -83,14 -162,-43 -176,-126 -14,-83 42,-162 126,-176 88,-15 244,-50 388,-90 112,-30 215,-63 271,-89z"/>
   <path class="fil1" d="M976 2326c2,85 72,151 156,149 85,-2 151,-72 149,-156l-14 -538 0 0 -1 -37c157,-52 330,-158 422,-378 68,-162 113,-338 113,-515 0,-115 -27,-226 -79,-328 -149,-293 -468,-458 -791,-458 -323,0 -642,165 -791,458 -51,102 -78,213 -78,328 0,177 44,353 112,515 110,260 -9,516 24,824 9,84 85,145 169,136 84,-9 144,-85 135,-169 -8,-83 -1,-267 14,-445 27,12 54,23 81,31l-1 38 0 0 -15 538c-2,84 65,154 149,156 84,2 154,-64 157,-149l14 -535c23,0 36,-1 36,-1 -1,0 8,1 25,1l14 535z"/>
   <g>
    <path class="fil2" d="M516 1712c27,12 54,23 81,31l-16 576c-2,84 65,154 149,156 84,2 154,-64 157,-149l14 -535c21,0 34,-1 36,-1 0,0 9,1 25,1l14 535c2,85 72,151 156,149 85,-2 151,-72 149,-156l-9 -324c19,-1 34,-6 50,-14l9 332c0,2 0,4 0,6l0 0c2,109 -83,200 -192,206 -2,0 -4,0 -7,0l0 0c-95,2 -179,-63 -201,-156 -21,91 -103,156 -197,156l-4 0 0 0c-110,-2 -199,-93 -199,-203l0 -3 1 0 1 -57c-31,63 -91,106 -161,113 -111,12 -212,-69 -223,-180 -14,-130 -2,-249 9,-364 16,-156 30,-303 -30,-445 -71,-169 -116,-351 -116,-535 0,-296 169,-557 423,-704 149,-86 322,-132 496,-132 342,0 678,176 835,486 55,108 85,228 85,350 0,184 -46,365 -117,535 -73,173 -201,299 -372,375 -19,-18 -43,-27 -68,-27 149,-55 307,-162 394,-368 68,-162 113,-338 113,-515 0,-115 -27,-226 -79,-328 -149,-293 -468,-458 -791,-458 -323,0 -642,165 -791,458 -51,102 -78,213 -78,328 0,177 44,353 112,515 110,260 -9,516 24,824 9,84 85,145 169,136 84,-9 144,-85 135,-169 -8,-83 -1,-267 14,-445zm421 78l0 0 0 0z"/>
   </g>
   <path class="fil3" d="M1373 174c-134,-71 -288,-109 -442,-109 -323,0 -642,165 -791,458 -51,102 -78,213 -78,328 0,177 44,353 112,515 110,260 -9,516 24,824 9,84 85,145 169,136l1 0c-16,-22 -27,-48 -30,-76 -33,-308 86,-564 -24,-824 -68,-162 -112,-338 -112,-515 0,-115 27,-226 78,-328 149,-293 468,-458 791,-458 103,0 205,17 302,49z"/>
   <path class="fil4" d="M1946 1397l-1293 788c-99,61 -230,29 -291,-70l0 0c-61,-100 -29,-231 70,-292l1293 -788c-49,-246 56,-507 283,-646 190,-116 418,-116 602,-22l-139 85 -294 180 4 185 5 185 162 89 163 88 294 -179 139 -85c0,207 -105,409 -295,525 -226,138 -507,113 -703,-43zm-1286 536c34,56 16,129 -40,163 -56,35 -129,17 -163,-39 -34,-56 -17,-129 39,-163 56,-35 129,-17 164,39z"/>
   <path class="fil2" d="M1943 1457l-1261 769c-2,2 -4,3 -6,4 -61,36 -131,44 -195,29 -64,-16 -122,-55 -160,-115 -1,-2 -3,-4 -4,-7 -36,-60 -44,-130 -28,-194 15,-65 56,-125 117,-162l1264 -771c-18,-124 0,-250 49,-363 53,-121 142,-227 263,-300 101,-62 212,-93 322,-97 114,-4 228,21 329,73 24,12 34,42 22,67 -5,8 -11,15 -19,20l-409 250 8 312 274 150 409 -250c24,-14 55,-7 69,17 5,9 8,19 7,29 -1,113 -30,224 -85,323 -54,96 -133,180 -234,242 -121,73 -255,104 -387,96 -123,-8 -243,-49 -345,-122zm3 -60l-1293 788c-99,61 -230,29 -291,-70 -61,-100 -29,-231 70,-292l1293 -788c-49,-246 56,-507 283,-646 190,-116 418,-116 602,-22l-433 265 9 370 325 177 433 -264c0,207 -105,409 -295,525 -226,138 -507,113 -703,-43zm-1286 536c34,56 16,129 -40,163 -56,35 -129,17 -163,-39 -34,-56 -17,-129 39,-163 56,-35 129,-17 164,39z"/>
   <path class="fil5" d="M931 1270c259,0 471,-211 471,-471 0,-259 -212,-470 -471,-470 -259,0 -470,211 -470,470 0,260 211,471 470,471z"/>
   <path class="fil2" d="M1001 1082c101,0 183,-82 183,-183 0,-100 -82,-182 -183,-182 -100,0 -182,82 -182,182 0,101 82,183 182,183zm-37 -131c48,0 87,-39 87,-87 0,-48 -39,-87 -87,-87 -48,0 -87,39 -87,87 0,48 39,87 87,87z"/>
   <path class="fil6" d="M1198 412c-76,-52 -168,-83 -267,-83 -259,0 -470,211 -470,470 0,214 143,395 339,452 -123,-85 -204,-227 -204,-387 0,-259 212,-470 471,-470 45,0 89,6 131,18z"/>
   <path class="fil0" d="M931 1245c123,0 234,-50 315,-131 81,-81 131,-192 131,-315 0,-122 -50,-234 -131,-314 -81,-81 -192,-131 -315,-131 -123,0 -234,50 -315,131 -80,80 -130,192 -130,314 0,123 50,234 130,315 81,81 193,131 315,131zm350 -95c-89,89 -213,145 -350,145 -136,0 -260,-56 -350,-145 -90,-90 -145,-214 -145,-351 0,-136 55,-260 145,-350 90,-90 214,-145 350,-145 137,0 261,55 350,145 90,90 146,214 146,350 0,137 -56,261 -146,351z"/>
   <path class="fil0" d="M1716 1581c-21,-10 -6,15 -10,-18l-1 -5 -1 -9 0 0c-2,-14 -5,-28 -8,-40 -1,-4 -1,-8 -2,-11 -21,-47 -23,-99 -9,-144 2,-6 4,-11 6,-16 18,-43 50,-80 94,-103 50,-26 105,-29 154,-14 50,15 93,50 120,100 13,26 23,56 31,86 8,33 14,71 18,97 6,51 -13,99 -48,132 2,-12 3,-25 3,-38 2,-40 -3,-83 -9,-121 -10,-55 -28,-111 -40,-133 -39,-75 -131,-104 -206,-65 -74,39 -103,132 -64,206 0,1 3,17 8,45 3,19 5,26 5,40 -14,2 -39,-4 -41,11z"/>
   <path class="fil1" d="M1744 1485c-39,-74 -10,-167 64,-206 75,-39 167,-10 206,65 12,22 30,78 40,133 6,38 11,81 9,121 -1,24 -4,47 -9,67 -8,30 -22,58 -42,81 -55,65 -151,72 -216,17 -53,-46 -67,-121 -38,-182 0,-14 -3,-32 -6,-51 -5,-28 -8,-44 -8,-45z"/>
  </g>
 </g>
</svg>
