<?xml version="1.0" encoding="UTF-8"?>
<!DOCTYPE svg PUBLIC "-//W3C//DTD SVG 1.1//EN" "http://www.w3.org/Graphics/SVG/1.1/DTD/svg11.dtd">
<!-- Creator: CorelDRAW X8 -->
<svg xmlns="http://www.w3.org/2000/svg" xml:space="preserve" width="100%" height="100%" version="1.1" style="shape-rendering:geometricPrecision; text-rendering:geometricPrecision; image-rendering:optimizeQuality; fill-rule:evenodd; clip-rule:evenodd"
viewBox="0 0 1990 2540"
 xmlns:xlink="http://www.w3.org/1999/xlink">
 <defs>
  <style type="text/css">
   <![CDATA[
    .fil5 {fill:#091570}
    .fil1 {fill:#091570}
    .fil9 {fill:#D42D57}
    .fil6 {fill:#E6E6E6}
    .fil8 {fill:#E6E6E6}
    .fil0 {fill:#F54773}
    .fil4 {fill:white}
    .fil7 {fill:#091570;fill-rule:nonzero}
    .fil3 {fill:#D42D57;fill-rule:nonzero}
    .fil2 {fill:#F54773;fill-rule:nonzero}
   ]]>
  </style>
 </defs>
 <g id="Capa_x0020_1">
  <metadata id="CorelCorpID_0Corel-Layer"/>
  <g>
   <path class="fil0" d="M1001 1790c-2,0 7,1 24,1l14 535c3,85 73,151 157,149 84,-2 151,-72 149,-157l-15 -537 0 0 -1 -37c157,-52 330,-158 423,-378 68,-162 112,-338 112,-515 0,-115 -27,-226 -78,-328 -149,-293 -468,-458 -791,-458 -323,0 -642,165 -791,458 -52,102 -79,213 -79,328 0,177 44,353 113,515 92,220 265,326 422,378l-1 37 0 0 -14 537c-2,85 64,155 149,157 84,2 154,-64 156,-149l14 -535c17,0 26,-1 25,-1l6 0 6 0z"/>
   <path id="1" class="fil1" d="M1001 1790c-1,0 8,1 24,1l14 535c3,85 73,151 157,149 84,-2 151,-72 149,-157l-15 -537 0 0 -1 -37c157,-52 330,-158 423,-378 68,-162 112,-338 112,-515 0,-115 -27,-226 -78,-328 -149,-293 -468,-458 -791,-458 -323,0 -642,165 -791,458 -52,102 -79,213 -79,328 0,177 44,353 113,515 92,220 265,326 422,378l-1 37 0 0 -14 537c-2,85 64,155 149,157 84,2 154,-64 156,-149l14 -535c16,0 25,-1 25,-1l6 0 6 0zm-12 0c0,0 0,0 0,0l0 0zm12 0l0 0c0,0 0,0 0,0zm-395 -12l-7 -2 3 0c-79,-30 -160,-75 -233,-140 -70,-63 -132,-145 -177,-250 -37,-88 -67,-179 -87,-272 -19,-87 -30,-175 -30,-263 0,-61 7,-121 22,-180 14,-59 35,-116 62,-170 78,-152 198,-272 340,-354 149,-86 322,-132 496,-132 174,0 347,46 496,132 142,82 262,202 339,354 28,54 49,111 63,170 14,59 21,119 21,180 0,88 -10,176 -29,263 -20,93 -50,184 -87,272 -45,105 -107,187 -177,250 -73,65 -154,110 -233,140l3 0 -7 2 -4 1 0 1 15 537 0 1 0 1 0 0c1,55 -21,106 -56,143 -36,37 -86,61 -142,63l-1 0 0 0 0 0c-55,1 -106,-20 -143,-56 -29,-26 -49,-61 -58,-100 -9,39 -30,74 -58,100 -37,36 -88,57 -143,56l0 0 0 0 -2 0c-56,-2 -106,-26 -141,-63 -36,-37 -57,-88 -56,-143l0 0 0 -1 0 -1 14 -537 0 -1 -3 -1z"/>
  </g>
  <path class="fil2" d="M1806 1107c-77,-34 -167,1 -201,78 -18,41 -16,86 0,123 -11,22 -28,48 -47,74 -70,97 -162,193 -189,214 -67,51 -89,152 -38,219 52,67 157,74 224,23 39,-31 162,-157 249,-277 40,-55 75,-112 95,-162 39,-97 35,-186 -36,-254 -16,-15 -35,-28 -57,-38z"/>
  <path class="fil3" d="M494 1611c-49,-54 -88,-119 -116,-185 -68,-162 -113,-338 -113,-515 0,-115 27,-226 79,-328 149,-293 468,-458 791,-458 103,0 205,17 302,49 -134,-71 -288,-109 -442,-109 -323,0 -642,165 -791,458 -52,102 -79,213 -79,328 0,177 44,353 113,515 51,122 127,209 212,271 9,-16 26,-26 44,-26z"/>
  <path class="fil2" d="M184 1107c77,-34 167,1 201,78 18,41 16,86 -1,123 12,22 29,48 48,74 70,97 161,193 189,214 67,51 89,154 37,220 -51,67 -157,73 -224,22 -39,-31 -161,-157 -248,-277 -41,-55 -75,-112 -96,-162 -38,-97 -35,-186 36,-254 17,-15 36,-28 58,-38z"/>
  <path class="fil4" d="M995 1270c259,0 470,-211 470,-471 0,-259 -211,-470 -470,-470 -259,0 -471,211 -471,470 0,260 212,471 471,471z"/>
  <path class="fil5" d="M995 982c100,0 182,-82 182,-183 0,-100 -82,-182 -182,-182 -101,0 -183,82 -183,182 0,101 82,183 183,183zm-37 -131c48,0 87,-39 87,-87 0,-48 -39,-87 -87,-87 -48,0 -87,39 -87,87 0,48 39,87 87,87z"/>
  <path class="fil6" d="M1262 412c-76,-52 -168,-83 -267,-83 -259,0 -471,211 -471,470 0,214 144,395 340,452 -123,-85 -204,-227 -204,-387 0,-259 212,-470 471,-470 45,0 89,6 131,18z"/>
  <path class="fil7" d="M995 1245c123,0 234,-50 315,-131 80,-81 130,-192 130,-315 0,-122 -50,-234 -130,-314 -81,-81 -192,-131 -315,-131 -123,0 -234,50 -315,131 -81,80 -131,192 -131,314 0,123 50,234 131,315 81,81 192,131 315,131zm350 -95c-90,89 -214,145 -350,145 -137,0 -261,-56 -350,-145 -90,-90 -146,-214 -146,-351 0,-136 56,-260 146,-350 89,-90 213,-145 350,-145 136,0 260,55 350,145 90,90 145,214 145,350 0,137 -55,261 -145,351z"/>
  <path class="fil4" d="M995 1270c259,0 470,-211 470,-471 0,-259 -211,-470 -470,-470 -259,0 -471,211 -471,470 0,260 212,471 471,471z"/>
  <path class="fil8" d="M1262 412c-76,-52 -168,-83 -267,-83 -259,0 -471,211 -471,470 0,214 144,395 340,452 -123,-85 -204,-227 -204,-387 0,-259 212,-470 471,-470 45,0 89,6 131,18z"/>
  <path class="fil7" d="M995 1245c123,0 234,-50 315,-131 80,-81 130,-192 130,-315 0,-122 -50,-234 -130,-314 -81,-81 -192,-131 -315,-131 -123,0 -234,50 -315,131 -81,80 -131,192 -131,314 0,123 50,234 131,315 81,81 192,131 315,131zm350 -95c-90,89 -214,145 -350,145 -137,0 -261,-56 -350,-145 -90,-90 -146,-214 -146,-351 0,-136 56,-260 146,-350 89,-90 213,-145 350,-145 136,0 260,55 350,145 90,90 145,214 145,350 0,137 -55,261 -145,351z"/>
  <path class="fil5" d="M995 865c36,0 66,-29 66,-66 0,-36 -30,-65 -66,-65 -36,0 -66,29 -66,65 0,37 30,66 66,66z"/>
  <path class="fil3" d="M184 1107c26,-11 53,-15 80,-11 -13,7 -25,16 -35,26 -71,68 -75,156 -36,253 20,51 55,107 95,163 87,120 210,246 249,276 22,17 48,27 74,31 -53,34 -124,33 -177,-7 -39,-31 -161,-157 -248,-277 -41,-55 -75,-112 -96,-162 -38,-97 -35,-186 36,-254 17,-15 36,-28 58,-38z"/>
  <path class="fil5" d="M439 1304c11,17 22,33 33,49 8,11 6,27 -5,35 -11,8 -27,5 -35,-6 -19,-26 -36,-52 -48,-74 17,-37 19,-82 1,-123 -34,-77 -124,-112 -201,-78 -22,10 -41,23 -58,38 -128,124 -25,300 60,416 87,120 209,246 248,277 67,51 163,39 215,-28 9,-12 22,-19 33,-14 11,5 20,20 15,33l-1 0 0 0c-64,98 -199,120 -292,48 -30,-23 -62,-56 -88,-84 -96,-100 -221,-248 -272,-376 -44,-110 -42,-222 48,-308 21,-20 45,-36 72,-47 102,-45 221,1 266,103 20,44 23,93 9,139z"/>
  <path class="fil5" d="M1550 1304c-10,17 -21,33 -33,49 -8,11 -5,27 6,35 11,8 27,5 35,-6 19,-26 36,-52 47,-74 -16,-37 -18,-82 0,-123 34,-77 124,-112 201,-78 22,10 41,23 57,38 129,124 25,300 -59,416 -87,120 -210,246 -249,277 -67,51 -163,39 -214,-28 -9,-12 -23,-19 -33,-14 -11,5 -20,20 -15,33l0 0 0 0c65,98 200,120 293,48 30,-23 62,-56 88,-84 95,-100 221,-248 272,-376 44,-110 42,-222 -48,-308 -21,-20 -46,-36 -72,-47 -102,-45 -221,1 -267,103 -19,44 -22,93 -9,139z"/>
  <path class="fil7" d="M848 1677c0,-48 -10,-242 22,-274l0 -1c32,-31 76,-51 125,-51 48,0 92,20 124,51l0 1c32,31 22,226 22,274 -3,45 -296,48 -293,0z"/>
  <path class="fil9" d="M908 1523c24,-22 54,-35 87,-35 32,0 63,13 87,35 7,18 10,64 10,112 -38,22 -157,22 -195,0 1,-48 3,-94 11,-112z"/>
 </g>
</svg>
