<?xml version="1.0" encoding="UTF-8"?>
<!DOCTYPE svg PUBLIC "-//W3C//DTD SVG 1.1//EN" "http://www.w3.org/Graphics/SVG/1.1/DTD/svg11.dtd">
<!-- Creator: CorelDRAW X8 -->
<svg xmlns="http://www.w3.org/2000/svg" xml:space="preserve" width="100%" height="100%" version="1.1" style="shape-rendering:geometricPrecision; text-rendering:geometricPrecision; image-rendering:optimizeQuality; fill-rule:evenodd; clip-rule:evenodd"
viewBox="0 0 2286 2540"
 xmlns:xlink="http://www.w3.org/1999/xlink">
 <defs>
  <style type="text/css">
   <![CDATA[
    .fil2 {fill:#091570}
    .fil11 {fill:#518BB8}
    .fil13 {fill:#518BB8}
    .fil9 {fill:#C7A4BA}
    .fil10 {fill:#CCFFFF}
    .fil1 {fill:#D42D57}
    .fil6 {fill:#E6BC68}
    .fil5 {fill:#E6E6E6}
    .fil0 {fill:#F54773}
    .fil4 {fill:white}
    .fil3 {fill:#091570;fill-rule:nonzero}
    .fil8 {fill:#091570;fill-rule:nonzero}
    .fil12 {fill:#518BB8;fill-rule:nonzero}
    .fil7 {fill:#F54773;fill-rule:nonzero}
   ]]>
  </style>
 </defs>
 <g id="Capa_x0020_1">
  <metadata id="CorelCorpID_0Corel-Layer"/>
  <path class="fil0" d="M1078 1833c-86,7 -165,2 -249,-14l-85 511c-37,221 -371,165 -335,-55l93 -555c-15,-8 -30,-16 -45,-25 -24,104 -67,309 -70,413 -7,223 -347,212 -340,-11 10,-303 162,-550 91,-814 -75,-283 -88,-604 86,-854 398,-571 1368,-438 1596,223 99,288 -2,593 -152,844 -60,102 -142,183 -245,241 -6,152 -23,400 -59,543 -22,91 -115,147 -206,124 -90,-23 -146,-115 -123,-206 22,-90 36,-270 43,-365z"/>
  <path class="fil1" d="M212 2255l2 0c-91,-164 154,-585 71,-898 -74,-277 -88,-594 83,-839 250,-359 753,-447 1139,-255l-2 -13c-534,-380 -1316,-109 -1401,501 -24,177 -5,358 41,530 71,269 -84,520 -91,817 -2,87 64,159 150,167l8 -10z"/>
  <path class="fil2" d="M1096 1815c-10,159 -27,314 -45,387 -49,196 248,270 297,74 30,-121 51,-342 59,-550 92,-49 179,-125 247,-239 147,-246 247,-547 150,-830 -223,-646 -1176,-779 -1567,-218 -171,245 -156,562 -82,839 72,272 -81,510 -91,819 -6,201 300,211 306,10 3,-84 35,-265 76,-439 24,16 50,30 75,42l-95 568c-33,198 268,248 301,50l88 -529c96,20 181,25 281,16zm-70 227c6,-51 12,-111 16,-174l-186 -10 -79 478c-43,257 -446,209 -398,-78l7 -43c-113,169 -378,83 -372,-119 10,-305 160,-552 92,-805 -77,-293 -90,-622 90,-881 415,-594 1419,-454 1655,231 103,298 0,612 -154,872 -62,104 -143,185 -242,243 -6,157 -24,395 -59,532 -43,175 -278,210 -371,55 -54,-90 -15,-162 1,-301z"/>
  <path class="fil3" d="M953 1369c-45,-6 -49,11 -48,52 6,157 201,230 308,111 25,-27 72,-116 20,-124l-280 -39z"/>
  <path class="fil1" d="M961 1426l116 16c21,25 36,55 43,88 -74,25 -152,-27 -159,-104z"/>
  <path class="fil4" d="M1205 1328c256,35 495,-145 531,-401 36,-257 -145,-496 -401,-532 -257,-35 -496,145 -531,401 -36,257 144,496 401,532z"/>
  <path class="fil5" d="M1587 515c-277,-256 -731,-93 -783,281 -30,212 88,412 274,495 -340,-312 -72,-876 382,-813 45,7 88,19 127,37z"/>
  <path class="fil3" d="M1208 1303c389,54 657,-392 417,-710 -240,-318 -742,-182 -797,207 -34,243 137,469 380,503zm360 -46c-353,267 -850,-31 -789,-464 60,-433 619,-583 886,-230 165,219 122,528 -97,694z"/>
  <path class="fil6" d="M1364 1324l194 76 -94 240c-89,15 -163,27 -237,35l137 -351zm-47 691c-27,117 -189,121 -209,3 66,8 139,7 209,-3z"/>
  <path class="fil7" d="M1339 1640c59,-126 239,-132 305,-7l49 128c50,307 -847,399 -849,82 -1,-94 73,-170 166,-172 134,-10 207,-14 329,-31z"/>
  <path class="fil8" d="M1591 1386l-51 129c35,8 67,25 93,50 37,36 53,77 67,126 10,36 18,74 18,96 -3,135 -185,228 -385,258 -45,114 -196,110 -240,8 -3,-8 -326,-24 -278,-254l49 9c-67,314 849,219 802,-44 -6,-37 -17,-76 -32,-111 -63,-146 -273,-112 -292,40 -18,2 -29,-12 -30,-28 -38,4 -75,9 -113,13l151 -386 241 94zm-102 123l37 -95 -148 -58 -103 264 40 -4c34,-65 101,-105 174,-107zm-218 543c-39,4 -79,5 -117,4 32,34 87,32 117,-4z"/>
  <path class="fil9" d="M1729 1432c115,-118 173,-360 163,-577 -9,-207 -81,-390 -212,-491 -219,-6 -429,124 -514,340 -108,276 28,587 304,695 85,33 174,43 259,33z"/>
  <path class="fil10" d="M1384 1356c192,-55 343,-218 372,-427 32,-223 -86,-434 -276,-532 -139,51 -256,159 -314,307 -96,246 1,519 218,652z"/>
  <path class="fil11" d="M1420 1197c110,15 212,-62 227,-171 15,-110 -62,-212 -171,-227 -110,-15 -211,62 -227,171 -15,110 62,211 171,227zm-20 -148c52,7 101,-30 108,-82 8,-53 -29,-101 -82,-109 -52,-7 -101,30 -108,82 -7,53 30,101 82,109z"/>
  <path class="fil12" d="M1353 1335c457,-105 517,-731 93,-924 22,-10 46,-19 70,-26 405,235 346,839 -99,989 -22,-11 -44,-24 -64,-39z"/>
  <path class="fil10" d="M1806 1362c280,-89 383,-399 302,-637 -50,-142 -187,-241 -333,-297 174,329 124,601 31,934z"/>
  <path class="fil13" d="M1729 1432c181,-363 221,-740 -49,-1068 25,1 50,3 75,7 240,327 209,692 41,1048 -22,6 -44,10 -67,13z"/>
  <path class="fil6" d="M2206 1116c119,-305 -31,-650 -337,-769 -305,-120 -650,31 -769,336 -120,306 31,650 336,769 306,120 650,-31 770,-336zm-376 -670c251,98 374,381 276,631 -98,251 -380,374 -631,276 -250,-98 -374,-380 -276,-631 98,-250 381,-374 631,-276z"/>
  <path class="fil8" d="M1878 324c512,200 526,922 23,1142 -504,220 -1025,-280 -824,-792 125,-318 483,-475 801,-350zm296 348c-204,-467 -871,-446 -1051,21 -183,476 299,928 758,728 287,-126 419,-462 293,-749z"/>
  <path class="fil8" d="M1839 423c424,165 436,763 19,946 -416,182 -848,-232 -682,-656 103,-263 400,-393 663,-290zm237 291c-164,-376 -704,-365 -853,17 -150,383 239,756 615,592 234,-102 340,-375 238,-609z"/>
 </g>
</svg>
