<?xml version="1.0" encoding="UTF-8"?>
<!DOCTYPE svg PUBLIC "-//W3C//DTD SVG 1.1//EN" "http://www.w3.org/Graphics/SVG/1.1/DTD/svg11.dtd">
<!-- Creator: CorelDRAW X8 -->
<svg xmlns="http://www.w3.org/2000/svg" xml:space="preserve" width="100%" height="100%" version="1.1" style="shape-rendering:geometricPrecision; text-rendering:geometricPrecision; image-rendering:optimizeQuality; fill-rule:evenodd; clip-rule:evenodd"
viewBox="0 0 3471 3641"
 xmlns:xlink="http://www.w3.org/1999/xlink">
 <defs>
  <style type="text/css">
   <![CDATA[
    .fil0 {fill:#091570}
    .fil6 {fill:#D42D57}
    .fil4 {fill:#E6E6E6}
    .fil1 {fill:#F54773}
    .fil3 {fill:white}
    .fil5 {fill:#091570;fill-rule:nonzero}
    .fil2 {fill:#F54773;fill-rule:nonzero}
   ]]>
  </style>
 </defs>
 <g id="Capa_x0020_1">
  <metadata id="CorelCorpID_0Corel-Layer"/>
  <g id="_1528594664992">
   <path class="fil0" d="M1823 1306c101,-48 222,-5 269,96 48,101 5,222 -96,270 -69,32 -137,67 -203,104 -68,39 -135,80 -201,122 -93,61 -219,33 -279,-60 -60,-94 -33,-220 61,-280 72,-47 146,-91 221,-134 75,-42 151,-82 228,-118zm21 45c77,-36 167,-3 203,73 36,76 4,167 -73,202 -72,35 -140,70 -205,107 -64,36 -132,77 -204,123 -70,46 -165,25 -210,-45 -46,-71 -25,-166 46,-211 68,-44 141,-88 219,-132 77,-43 152,-83 224,-117z"/>
   <path class="fil1" d="M949 1779c-1,0 8,1 24,1l15 536c2,84 72,151 156,149 85,-3 151,-73 149,-157l-14 -538 0 0 -1 -37c157,-51 330,-158 422,-377 68,-163 113,-339 113,-516 0,-114 -27,-225 -79,-327 -149,-294 -468,-459 -791,-459 -323,0 -642,165 -791,459 -51,102 -79,213 -79,327 0,177 45,353 113,516 109,259 -9,516 24,823 9,84 84,145 169,136 84,-9 144,-84 135,-168 -9,-84 -1,-267 14,-445 27,12 54,22 81,31l-1 37 0 0 -15 538c-2,84 65,154 149,157 84,2 154,-65 157,-149l14 -536c23,0 36,-1 36,-1z"/>
   <path class="fil0" d="M949 1779l0 0 0 0zm0 0c0,0 9,1 24,1l15 536c2,84 72,151 156,149 85,-3 151,-73 149,-157l-15 -575c157,-51 330,-158 422,-377 68,-163 113,-339 113,-516 0,-114 -27,-225 -79,-327 -149,-294 -468,-459 -791,-459 -323,0 -642,165 -791,459 -51,102 -79,213 -79,327 0,177 45,353 113,516 109,259 -9,516 24,823 9,84 84,145 169,136 84,-9 144,-84 135,-168 -9,-84 -1,-267 14,-445 27,12 54,22 81,31l-16 575c-2,84 65,154 149,157 84,2 154,-65 157,-149l14 -536c21,0 34,-1 36,-1zm52 680c-28,-27 -49,-62 -58,-101 -9,39 -30,74 -58,101 -36,34 -85,56 -139,55l-4 1 0 -1 -1 0c-56,-1 -106,-25 -142,-63 -35,-36 -56,-86 -56,-140l0 -3 0 0 2 -57c-7,14 -15,27 -25,39 -32,41 -81,69 -136,75 -56,6 -109,-12 -149,-44 -41,-33 -69,-81 -75,-137 -13,-130 -1,-249 10,-363 16,-157 30,-304 -30,-446 -37,-88 -67,-179 -87,-272 -19,-86 -30,-174 -30,-263 0,-60 8,-120 22,-179 14,-59 35,-116 63,-171 77,-152 197,-271 339,-354 149,-86 322,-132 496,-132 174,0 347,46 496,132 142,83 262,202 339,354 28,55 49,112 63,171 14,59 22,119 22,179 0,89 -11,177 -30,263 -20,93 -50,184 -87,272 -45,106 -107,187 -177,250 -75,67 -159,113 -241,143l15 534c0,2 0,4 0,6l0 0c1,55 -20,106 -56,143 -34,37 -82,60 -136,63 -2,0 -5,1 -7,1l0 -1c-55,1 -106,-20 -143,-55z"/>
   <path class="fil2" d="M1208 1459c14,0 25,11 25,25 0,14 -11,25 -25,25l-240 0c-14,0 -25,-11 -25,-25 0,-14 11,-25 25,-25l240 0z"/>
   <g>
    <path class="fil3" d="M943 1259c259,0 471,-211 471,-470 0,-259 -212,-471 -471,-471 -259,0 -471,212 -471,471 0,259 212,470 471,470z"/>
    <path class="fil0" d="M1084 1065c101,0 183,-81 183,-182 0,-100 -82,-182 -183,-182 -100,0 -182,82 -182,182 0,101 82,182 182,182zm-37 -130c48,0 88,-39 88,-88 0,-48 -40,-87 -88,-87 -48,0 -87,39 -87,87 0,49 39,88 87,88z"/>
    <path class="fil4" d="M1210 402c-76,-53 -168,-84 -267,-84 -259,0 -471,212 -471,471 0,214 144,395 340,452 -123,-85 -204,-227 -204,-387 0,-260 212,-471 471,-471 45,0 89,6 131,19z"/>
    <path class="fil5" d="M943 1234c123,0 234,-50 315,-130 81,-81 131,-193 131,-315 0,-123 -50,-234 -131,-315 -81,-81 -192,-131 -315,-131 -123,0 -234,50 -315,131 -80,81 -131,192 -131,315 0,122 51,234 131,315 81,80 192,130 315,130zm350 -95c-90,90 -213,145 -350,145 -136,0 -260,-55 -350,-145 -90,-90 -146,-214 -146,-350 0,-137 56,-261 146,-350 90,-90 214,-146 350,-146 137,0 260,56 350,146 90,89 146,213 146,350 0,136 -56,260 -146,350z"/>
   </g>
   <path class="fil2" d="M1844 1351c77,-36 167,-3 203,73 36,76 4,167 -73,202 -72,35 -140,70 -205,107 -64,36 -132,77 -204,123 -70,46 -165,25 -210,-45 -46,-71 -25,-166 46,-211 68,-44 141,-88 219,-132 77,-43 152,-83 224,-117z"/>
   <g>
    <path class="fil5" d="M1432 1634l254 0 357 0c127,0 230,103 230,230l0 1264c7,0 14,0 21,0l643 0c125,0 242,45 332,120 90,76 155,181 178,304 1,2 1,4 1,7 0,13 -11,25 -25,25l-547 0c-32,0 -63,-11 -88,-29 -25,-18 -45,-44 -56,-74 -28,-76 -74,-140 -133,-190 -27,23 -52,50 -73,78 -25,34 -45,72 -60,112 -16,45 -46,85 -84,113 -38,27 -84,42 -134,42l-611 0c-126,0 -230,-103 -230,-230l0 -589 -363 0c-14,0 -25,-11 -25,-25l0 -994c0,-4 1,-7 2,-10 16,-45 45,-84 84,-111 37,-27 84,-43 133,-43l194 0zm-51 50c34,26 60,62 74,104 2,3 2,6 2,10l0 994 0 614c0,99 81,180 180,180 39,0 75,-12 105,-33 30,-22 54,-53 66,-89l0 -1c39,-101 106,-185 191,-243 66,-46 142,-76 224,-87l0 -1269c0,-99 -81,-180 -180,-180l-357 0 -254 0 -51 0zm2011 1850c-25,-99 -80,-185 -155,-247 -82,-69 -187,-109 -300,-109l-421 0c25,12 50,26 73,42 8,6 16,12 24,18 1,0 2,1 3,2 72,57 129,133 163,223l1 1c7,21 20,38 37,51 17,12 37,19 59,19l516 0zm-973 -70l0 -1 -1 1c-12,36 -35,67 -66,89 -29,21 -65,33 -104,33l-468 0c34,-27 61,-63 75,-105 34,-91 95,-167 172,-220 77,-53 169,-83 267,-83 97,0 188,29 265,82 -27,24 -52,51 -73,80 -28,37 -50,79 -67,123l0 1zm360 -1l0 1c5,12 -1,27 -14,32 -13,5 -27,-2 -32,-15l46 -18zm-971 1l0 -1 0 1z"/>
   </g>
   <path class="fil3" d="M2223 3133l0 -1269c0,-99 -81,-180 -180,-180l-357 0 -254 0 -51 0c34,26 60,62 74,104 2,3 2,6 2,10l0 994 0 614c0,99 81,180 180,180 39,0 75,-12 105,-33 30,-22 54,-53 66,-89l0 -1c39,-101 106,-185 191,-243 66,-46 142,-76 224,-87z"/>
   <path class="fil3" d="M3392 3534c-25,-99 -80,-185 -155,-247 -82,-69 -187,-109 -300,-109l-421 0c25,12 50,26 73,42 8,6 16,12 24,18l3 2c72,57 129,133 163,223l0 1c0,0 1,0 1,0 7,21 20,38 37,51 17,12 37,19 59,19l516 0z"/>
   <path class="fil0" d="M1723 1412c28,-69 92,-117 166,-126 130,-15 275,97 328,210 13,28 22,57 26,87 13,111 -67,212 -178,224 -90,11 -175,-40 -210,-121l-5 -11c14,-7 36,-5 50,-12 19,-10 39,-20 59,-29 5,-3 10,-5 15,-8 77,-35 109,-126 73,-202 -33,-70 -112,-104 -184,-80 0,0 0,0 0,0 -6,2 -13,4 -19,7 -39,19 -80,39 -121,61z"/>
   <path class="fil2" d="M2193 1589c10,84 -50,159 -134,169 -78,9 -155,-45 -167,-124 -48,-8 -98,-33 -120,-81 -36,-76 -3,-167 73,-202 17,-8 34,-13 51,-15l0 0 1 0c52,-6 118,18 171,58l0 1c41,31 82,76 104,123 11,22 18,46 21,71z"/>
   <path class="fil5" d="M1558 2826c-10,29 32,47 46,19l1 -3 90 -254 128 402c9,26 45,20 48,-3l235 -878 47 143 47 -15 -84 -260 -203 183 33 37 112 -101 -213 797 -124 -388c-4,-21 -35,-30 -47,-6l-1 2 -115 325z"/>
   <circle class="fil1" cx="1696" cy="2487" r="78"/>
   <path class="fil5" d="M1696 2384c29,0 54,12 73,30 19,19 30,45 30,73 0,29 -11,54 -30,73 -18,19 -44,30 -73,30 -28,0 -54,-11 -73,-30 -18,-19 -30,-44 -30,-73 0,-28 12,-54 30,-73l1 0c18,-18 44,-30 72,-30zm38 66c-10,-10 -23,-16 -38,-16 -14,0 -28,6 -37,16l0 0c-10,9 -16,22 -16,37 0,15 6,28 16,38 9,9 23,15 37,15 15,0 28,-6 38,-15 9,-10 15,-23 15,-38 0,-14 -6,-28 -15,-37z"/>
   <circle class="fil1" cx="1847" cy="2982" r="78"/>
   <path class="fil5" d="M1847 2879c28,0 54,12 72,30 19,19 31,45 31,73 0,29 -12,54 -30,73 -19,19 -45,30 -73,30 -29,0 -55,-11 -73,-30 -19,-19 -30,-45 -30,-73 0,-28 11,-54 30,-73l0 0c19,-18 44,-30 73,-30zm37 66c-9,-10 -23,-16 -37,-16 -15,0 -28,6 -38,16l0 0c-10,9 -15,22 -15,37 0,15 5,28 15,38 10,9 23,15 38,15 14,0 28,-6 37,-15 10,-10 16,-23 16,-38 0,-15 -6,-28 -16,-37z"/>
   <circle class="fil1" cx="1581" cy="2834" r="78"/>
   <path class="fil5" d="M1581 2731c29,0 55,11 73,30 19,19 30,44 30,73 0,28 -11,54 -30,73 -18,18 -44,30 -73,30 -28,0 -54,-12 -72,-30 -19,-19 -31,-45 -31,-73 0,-28 12,-54 31,-73l0 0c18,-19 44,-30 72,-30zm38 65c-10,-9 -23,-15 -38,-15 -14,0 -28,6 -37,15l0 0c-10,10 -16,23 -16,38 0,15 6,28 16,37 10,10 23,16 37,16 15,0 28,-6 38,-16 10,-9 15,-22 15,-37 0,-15 -5,-28 -15,-38z"/>
   <g id="_1528594665952">
    <path class="fil5" d="M2821 3313c-13,0 -25,-12 -25,-25 0,-14 12,-25 25,-25l266 0c13,0 25,11 25,25 0,13 -12,25 -25,25l-266 0z"/>
    <path class="fil5" d="M2924 3407c-14,0 -25,-11 -25,-25 0,-14 11,-25 25,-25l265 0c14,0 25,11 25,25 0,14 -11,25 -25,25l-265 0z"/>
   </g>
   <g id="_1528594667680">
    <path class="fil5" d="M1581 2017c-13,0 -25,-11 -25,-25 0,-14 12,-25 25,-25l266 0c13,0 25,11 25,25 0,14 -12,25 -25,25l-266 0z"/>
    <path class="fil5" d="M1581 2134c-13,0 -25,-11 -25,-25 0,-14 12,-25 25,-25l266 0c13,0 25,11 25,25 0,14 -12,25 -25,25l-266 0z"/>
    <path class="fil5" d="M2019 2859c-14,0 -25,-11 -25,-25 0,-14 11,-25 25,-25l133 0c14,0 25,11 25,25 0,14 -11,25 -25,25l-133 0z"/>
    <path class="fil5" d="M2019 2947c-14,0 -25,-11 -25,-25 0,-14 11,-25 25,-25l133 0c14,0 25,11 25,25 0,14 -11,25 -25,25l-133 0z"/>
    <path class="fil5" d="M1581 3313c-13,0 -25,-12 -25,-25 0,-14 12,-25 25,-25l500 0c14,0 25,11 25,25 0,13 -11,25 -25,25l-500 0z"/>
    <path class="fil5" d="M1581 3427c-13,0 -25,-11 -25,-25 0,-14 12,-25 25,-25l500 0c14,0 25,11 25,25 0,14 -11,25 -25,25l-500 0z"/>
   </g>
   <path class="fil6" d="M1385 163c-134,-71 -288,-109 -442,-109 -323,0 -642,165 -791,459 -51,102 -79,213 -79,327 0,177 45,353 113,516 110,259 -9,516 24,823 9,84 84,145 169,136l1 0c-16,-21 -27,-47 -30,-76 -33,-307 86,-564 -24,-823 -68,-163 -113,-339 -113,-516 0,-114 28,-225 79,-327 149,-294 468,-459 791,-459 103,0 205,17 302,49z"/>
  </g>
  <path class="fil5" d="M1208 1459c14,0 25,11 25,25 0,14 -11,25 -25,25l-240 0c-14,0 -25,-11 -25,-25 0,-14 11,-25 25,-25l240 0z"/>
 </g>
</svg>
